<svg xmlns="http://www.w3.org/2000/svg" version="1.1" xmlns:xlink="http://www.w3.org/1999/xlink" viewBox="0 0 20.145515402046787 13.555869617827138"><g transform="matrix(0.8283797291005138,0,0,0.8283797291005138,2.8919204133993244,9.352816872926454)"><rect width="22.953964153702948" height="22.953964153702948" x="-2.80844875165616" y="-14.585317509936964" fill="#ffffff"></rect><g transform="matrix(1,0,0,1,0,0)" clip-path="url(#SvgjsClipPath11088)"><g clip-path="url(#SvgjsClipPath110834d5eba0f-3025-42e4-9838-44b0627f7368)"><path d=" M 11.716590909695697 -6.916602101265769 L 5.620567816595219 -6.916602101265769 C 5.7007352337882855 -7.477835405550776 6.076067295370983 -7.848885937769606 6.599748978317658 -8.033114468283156 C 7.264073469746361 -8.268038652475596 7.963502964808507 -8.388310178821861 8.66814200261905 -8.388788325152165 C 9.373072838327941 -8.388386983489282 10.072802685022232 -8.268114672717084 10.737409747973253 -8.03311446828316 C 11.034231758568257 -7.929053354962675 11.283297068875209 -7.7644369912126665 11.458133857558328 -7.539250031049752 C 11.598058691968461 -7.358339833234579 11.6872692710205 -7.143422956708182 11.716590909695697 -6.916602101265769 Z" fill="#51a8db" transform="matrix(1,0,0,1,0,0)" fill-rule="nonzero"></path></g><g clip-path="url(#SvgjsClipPath110834d5eba0f-3025-42e4-9838-44b0627f7368)"><path d=" M 11.716606255679082 -6.823329214263575 L 5.620567816595207 -6.823329214263575 C 5.593521289696969 -6.823346719037565 5.567814592103061 -6.835105391428596 5.5501144068836155 -6.855555779367982 C 5.532397489751166 -6.875982646070065 5.524418738458765 -6.9030936030930645 5.528246380562764 -6.929861030908727 C 5.608275683905386 -7.490173576190748 5.977883693686211 -7.913262338061509 6.568796129834038 -8.121169720935114 C 7.2430237733145955 -8.359730858058748 7.952938414432456 -8.481791547194224 8.668126656635653 -8.482122596087892 C 9.383625451666939 -8.481838499719053 10.093856466540432 -8.35977265238596 10.76839328842363 -8.121154374951733 C 11.092960836975198 -8.007379254149777 11.349837252824118 -7.830854407294522 11.531794577796978 -7.59653658701869 C 11.681779182812601 -7.402806811443245 11.777442620270397 -7.17261600293807 11.80894303769491 -6.929646187141364 C 11.812702073952103 -6.902910703939607 11.8046920662095 -6.875858036280618 11.786982935473759 -6.855479049451069 C 11.769286064966774 -6.835077414707627 11.743613764038884 -6.8233496627573595 11.716606255679082 -6.823329214263575 Z M 5.7323172675906005 -7.009859642284579 L 11.604994918534139 -7.009859642284579 C 11.567819604750495 -7.181707131896142 11.49250887456532 -7.3430063531757455 11.384626597153495 -7.4818407072137525 C 11.224905602102684 -7.687553614463574 10.99681825108037 -7.843346037768325 10.706548975389929 -7.9451052535813504 C 10.051884989955632 -8.176725043539369 9.362571678010099 -8.295220715939914 8.668142002619032 -8.295515438149971 C 7.974050615240591 -8.29517252535694 7.285080805457852 -8.17669259309255 6.63074786475142 -7.945151291531499 C 6.2829771893246855 -7.8227977660184145 5.855745011940498 -7.561916048506518 5.7323172675906005 -7.009859642284579 Z" fill="#000000" transform="matrix(1,0,0,1,0,0)" fill-rule="nonzero"></path></g><g clip-path="url(#SvgjsClipPath110834d5eba0f-3025-42e4-9838-44b0627f7368)"><path d=" M 10.461918654280684 -7.135804127909292 L 10.461918654280684 -6.916602101265767 L 6.875255417993604 -6.916602101265767 L 6.875255417993604 -7.135804127909292 C 6.875214683252248 -7.230377761335435 6.912766923869153 -7.321089379844832 6.979642026738512 -7.387961604384843 C 7.046517129607876 -7.454833828924855 7.137230364330451 -7.4923821651610965 7.231803995915589 -7.492337359847754 L 10.105370076358842 -7.492337359847754 C 10.19994370794398 -7.4923821651610645 10.290656942666542 -7.454833828924787 10.357532045535876 -7.387961604384749 C 10.424407148405212 -7.321089379844714 10.46195938902208 -7.230377761335303 10.461918654280684 -7.135804127909292 Z" fill="#dddee0" transform="matrix(1,0,0,1,0,0)" fill-rule="nonzero"></path></g><g clip-path="url(#SvgjsClipPath110834d5eba0f-3025-42e4-9838-44b0627f7368)"><path d=" M 10.461918654280684 -6.823329214263575 L 6.875240072010221 -6.823329214263575 C 6.823726878946223 -6.823329214263575 6.781967185008033 -6.865088908201763 6.781967185008033 -6.916602101265769 L 6.781967185008033 -7.135804127909295 C 6.782254757608716 -7.384115469297948 6.9834926263945825 -7.585332742661789 7.231803995915429 -7.585594900866569 L 10.105370076358842 -7.585594900866569 C 10.353675453007362 -7.58532428708476 10.554903984690029 -7.384109485514781 10.555191541282884 -7.135804127909295 L 10.555191541282884 -6.916602101265769 C 10.555191541282884 -6.865088908201763 10.513431847344693 -6.823329214263575 10.461918654280684 -6.823329214263575 Z M 6.968512959012414 -7.009859642284579 L 10.36864576727849 -7.009859642284579 L 10.36864576727849 -7.135804127909295 C 10.368468183433002 -7.281131170512792 10.250697129066863 -7.398895360163712 10.105370076358835 -7.399064472845561 L 7.2318039959154525 -7.399064472845561 C 7.086470950337908 -7.398903814620338 6.968690559769197 -7.28113715377018 6.968512959012414 -7.135804127909292 Z" fill="#000000" transform="matrix(1,0,0,1,0,0)" fill-rule="nonzero"></path></g><g clip-path="url(#SvgjsClipPath110834d5eba0f-3025-42e4-9838-44b0627f7368)"><path d=" M 5.603088741521922 -4.943753169507275 L 11.733947216901939 -4.943753169507275 L 11.733947216901939 -4.3144757749018146 L 5.603088741521922 -4.3144757749018146 Z" fill="#51a8db" transform="matrix(1,0,0,1,0,0)" fill-rule="nonzero"></path></g><g clip-path="url(#SvgjsClipPath110834d5eba0f-3025-42e4-9838-44b0627f7368)"><path d=" M 11.733977908868697 -4.221218233883001 L 5.603104087505294 -4.221218233883001 C 5.5515968868255285 -4.221218233185868 5.509839674869787 -4.262968574919176 5.5098312005031005 -4.314475774901817 L 5.5098312005031005 -4.943753169507275 C 5.509831200503112 -4.995266362571277 5.551590894441297 -5.037026056509468 5.603104087505305 -5.037026056509468 L 11.733977908868697 -5.037026056509468 C 11.785491101932696 -5.037026056509468 11.827250795870885 -4.995266362571277 11.827250795870885 -4.943753169507275 L 11.827250795870885 -4.314475774901814 C 11.827242321504198 -4.262968574919156 11.785485109548445 -4.221218233185859 11.733977908868681 -4.221218233883004 Z M 5.6963769745074995 -4.407748661904008 L 11.640705021866504 -4.407748661904008 L 11.640705021866504 -4.850557012421994 L 5.696376974507493 -4.850557012421994 Z" fill="#000000" transform="matrix(1,0,0,1,0,0)" fill-rule="nonzero"></path></g><g clip-path="url(#SvgjsClipPath110834d5eba0f-3025-42e4-9838-44b0627f7368)"><path d=" M 12.096281230559187 -1.865855320318535 L 5.240785419831426 -1.865855320318535 C 5.015830128941733 -1.8658637954453505 4.833472328718795 -2.0482284662055523 4.833472328878444 -2.273183757254901 L 4.833472328878444 -3.755513676157501 C 4.83346825866842 -3.9037608896767537 4.892357432216892 -4.045937451538233 4.997184042228452 -4.1507640615502135 C 5.102010652240023 -4.255590671562199 5.244187214101266 -4.314479845111237 5.3924344276216285 -4.314475774901814 L 11.944632222767872 -4.314475774901814 C 12.09287943628824 -4.314479845111535 12.235055998149601 -4.255590671562779 12.339882608161371 -4.150764061551006 C 12.444709218173156 -4.045937451539231 12.503598391721905 -3.90376088967787 12.503594321512182 -3.755513676157501 L 12.503594321512182 -2.2731837572549036 C 12.503594321512182 -2.0482284659164725 12.321236521159818 -1.8658637952856862 12.096281230270113 -1.8658553203185235 Z" fill="#3361e1" transform="matrix(1,0,0,1,0,0)" fill-rule="nonzero"></path></g><g clip-path="url(#SvgjsClipPath110834d5eba0f-3025-42e4-9838-44b0627f7368)"><path d=" M 12.096281230559187 -1.7725977792997254 L 5.240785419831426 -1.7725977792997254 C 4.96444314012796 -1.7729022329265884 4.740497020949502 -1.9968414870144837 4.740184095892861 -2.2731837572549036 L 4.740184095892861 -3.755513676157501 C 4.740615348546718 -4.115537379387292 5.032364686442903 -4.407286717283436 5.392388389672649 -4.407717969937242 L 11.94458618481772 -4.407717969937242 C 12.304613388608065 -4.407295154228418 12.596367662888639 -4.115540879947844 12.596790478597459 -3.755513676157501 L 12.596790478597459 -2.2731837572549036 C 12.596477654783737 -1.9968773846718602 12.372587551942491 -1.7729529586506718 12.096281230559205 -1.7725977792997254 Z M 5.3924344276227485 -4.221218233883001 C 5.135358094896654 -4.220922233339657 4.9270327450570175 -4.012590018498043 4.926745215880638 -3.755513676157501 L 4.926745215880638 -2.2731837572549036 C 4.92693971422401 -2.0998222842950973 5.067423956582745 -1.959331176990962 5.240785419831402 -1.959128207320732 L 12.096281230559182 -1.959128207320732 C 12.269642693807844 -1.9593311769909532 12.410126936166586 -2.0998222842950796 12.410321434509974 -2.2731837572549036 L 12.410321434509974 -3.755513676157501 C 12.410033905333608 -4.01259001849802 12.201708555493976 -4.220922233339642 11.944632222767883 -4.221218233883001 Z" fill="#000000" transform="matrix(1,0,0,1,0,0)" fill-rule="nonzero"></path></g><g clip-path="url(#SvgjsClipPath110834d5eba0f-3025-42e4-9838-44b0627f7368)"><path d=" M 10.46452747145581 -1.865855320318535 L 6.872539178934804 -1.865855320318535 L 6.872539178934804 -4.361311716186893 C 6.872539178934804 -4.51578745307326 6.933905476762366 -4.663936041416333 7.043137756699869 -4.773165443336241 C 7.152370036637376 -4.882394845256153 7.300520241810153 -4.9437572396387885 7.454995978440735 -4.943753169507271 L 9.882055326168663 -4.943753169507271 C 10.036531062799245 -4.9437572395851745 10.18468126795072 -4.8823948451511185 10.293913547850316 -4.773165443193292 C 10.403145827749906 -4.663936041235468 10.464512125526042 -4.515787452871095 10.464512125472426 -4.361311716186893 Z" fill="#dddee0" transform="matrix(1,0,0,1,0,0)" fill-rule="nonzero"></path></g><g clip-path="url(#SvgjsClipPath110834d5eba0f-3025-42e4-9838-44b0627f7368)"><path d=" M 10.46452747145581 -1.7725977792997254 L 6.872554524918187 -1.7725977792997254 C 6.847817017127676 -1.7725937089570483 6.824091076352447 -1.7824167422048856 6.806596138913919 -1.79990592378309 C 6.789101201475398 -1.8173951053612951 6.779270361605651 -1.8411178125279157 6.779266291932599 -1.865855320318535 L 6.779266291932599 -4.361296370203509 C 6.779689140701599 -4.734316280869742 7.081976067572415 -5.0366032077405265 7.454995978238608 -5.037026056509468 L 9.882055326168663 -5.037026056509468 C 10.255075236834855 -5.0366032077405 10.557362163705655 -4.734316280869699 10.55778501247462 -4.361296370203509 L 10.55778501247462 -1.865855320318535 C 10.557776539790767 -1.8143541125159617 10.51602867925841 -1.7726062519835901 10.46452747145582 -1.7725977792997254 Z M 6.965827411920381 -1.959128207320732 L 10.37125458445361 -1.959128207320732 L 10.37125458445361 -4.361296370203509 C 10.370992394751273 -4.63137492316641 10.152133844108661 -4.850260935826832 9.882055326168699 -4.8505570124219926 L 7.454995978238566 -4.8505570124219926 C 7.184949881455598 -4.850252525698009 6.966114955638048 -4.63140386949234 6.965827411920375 -4.361357754137039 Z" fill="#000000" transform="matrix(1,0,0,1,0,0)" fill-rule="nonzero"></path></g><g clip-path="url(#SvgjsClipPath110834d5eba0f-3025-42e4-9838-44b0627f7368)"><path d=" M 5.972871195943947 -3.604247046576611 C 6.2567554600203765 -3.5372285809406137 6.43255988976734 -3.252765771510136 6.365541424131343 -2.9688815074337116 C 6.298522958495343 -2.684997243357282 6.014060149064871 -2.509192813610306 5.730175884988441 -2.5762112792463094 C 5.4462916209120085 -2.6432297448823077 5.270487191165045 -2.9276925543127854 5.337505656801044 -3.211576818389216 C 5.404524122437042 -3.4954610824656394 5.688986931867514 -3.6712655122126154 5.972871195943947 -3.604247046576611 Z" fill="#dddee0" transform="matrix(1,0,0,1,0,0)" fill-rule="nonzero"></path></g><g clip-path="url(#SvgjsClipPath110834d5eba0f-3025-42e4-9838-44b0627f7368)"><path d=" M 5.851187254875732 -2.4687529694885306 C 5.508147584091982 -2.4691335185408576 5.230149149571558 -2.747118223048468 5.229751657779011 -3.090157874618484 C 5.2301406783266176 -3.4332060110992737 5.508139118395022 -3.7112044511676405 5.851187254875773 -3.7115934717152026 C 6.194229398363549 -3.7111959963257544 6.472218501926554 -3.4332000278172394 6.4726075059890755 -3.090157874618484 C 6.472210030620964 -2.7471242064778147 6.194220932727587 -2.4691419735298075 5.851187254875738 -2.4687529694885306 Z M 5.851187254875732 -3.5250476977108187 C 5.611116424236996 -3.524777071230405 5.416568058263811 -3.330228705257217 5.416297431783398 -3.0901578746184866 C 5.41656807437889 -2.8500895357719216 5.6111189066282705 -2.655545568649476 5.85118725487572 -2.6552833975095425 C 6.091249610167253 -2.6555540239693585 6.285791105524858 -2.8500955193269606 6.286061731984683 -3.0901578746184866 C 6.285799560844758 -3.330226222865922 6.091255593722321 -3.5247770551153117 5.85118725487575 -3.5250476977108187 Z" fill="#000000" transform="matrix(1,0,0,1,0,0)" fill-rule="nonzero"></path></g><g clip-path="url(#SvgjsClipPath110834d5eba0f-3025-42e4-9838-44b0627f7368)"><path d=" M 11.607630959247382 -3.6042453920259714 C 11.891515223323813 -3.537226926389968 12.067319653070776 -3.25276411695949 12.000301187434777 -2.9688798528830658 C 11.93328272179878 -2.684995588806636 11.648819912368307 -2.50919115905966 11.364935648291876 -2.5762096246956583 C 11.081051384215442 -2.643228090331662 10.905246954468481 -2.9276908997621396 10.972265420104478 -3.21157516383857 C 11.039283885740478 -3.4954594279149935 11.32374669517095 -3.6712638576619696 11.607630959247382 -3.6042453920259714 Z" fill="#dddee0" transform="matrix(1,0,0,1,0,0)" fill-rule="nonzero"></path></g><g clip-path="url(#SvgjsClipPath110834d5eba0f-3025-42e4-9838-44b0627f7368)"><path d=" M 11.485879395514887 -2.4687529694885306 C 11.142845717663038 -2.4691419735298075 10.864856619769661 -2.7471242064778147 10.86445914440155 -3.090157874618484 C 10.8648481484641 -3.433200027817298 11.142837252027135 -3.7111959963257872 11.485879395514953 -3.7115934717152026 C 11.828927531995632 -3.711204451167619 12.106925972064026 -3.43320601109923 12.10731499261161 -3.090157874618484 C 12.106917500819055 -2.747118223048459 11.828919066298624 -2.469133518540854 11.485879395514875 -2.4687529694885306 Z M 11.485879395514887 -3.5250476977108187 C 11.245817049711462 -3.5247686000063334 11.051282419306354 -3.330220239521797 11.05102026438932 -3.0901578746184866 C 11.051282435509357 -2.850098001718261 11.245819532015826 -2.6555540400850273 11.485879395514864 -2.65528339750954 C 11.725945252013515 -2.6555455845555187 11.920491685577865 -2.8500920181198586 11.920753872623838 -3.09015787461849 C 11.920491701483918 -3.330226222865922 11.725947734361487 -3.5247770551153117 11.485879395514917 -3.5250476977108187 Z" fill="#000000" transform="matrix(1,0,0,1,0,0)" fill-rule="nonzero"></path></g><g clip-path="url(#SvgjsClipPath110834d5eba0f-3025-42e4-9838-44b0627f7368)"><path d=" M 6.154761498159281 -0.3432728870021897 L 5.5475976656088 -0.3432728870021897 C 5.433945312673912 -0.3432728870021897 5.341823374425442 -0.44622908951909324 5.341823374425442 -0.5732171020138521 L 5.341823374425442 -1.63591110530687 C 5.341823374425442 -1.7629144637850187 5.43389927472376 -1.8658553203185324 5.5475976656088 -1.8658553203185324 L 6.154761498159281 -1.8658553203185324 C 6.26832177519387 -1.8658553203185324 6.360535789342638 -1.7629144637850125 6.360535789342638 -1.63591110530687 L 6.360535789342638 -0.5732171020138521 C 6.360535789342633 -0.44625978148585865 6.268398505110785 -0.3432728870021897 6.154761498159281 -0.3432728870021897 Z" fill="#3361e1" transform="matrix(1,0,0,1,0,0)" fill-rule="nonzero"></path></g><g clip-path="url(#SvgjsClipPath110834d5eba0f-3025-42e4-9838-44b0627f7368)"><path d=" M 6.154761498159281 -0.25001534598338004 L 5.5475976656088 -0.25001534598338004 C 5.382705074157901 -0.25001534598338004 5.248550487423249 -0.39500419698646283 5.248550487423249 -0.5732171020138521 L 5.248550487423249 -1.63591110530687 C 5.248550487423249 -1.8141240103342646 5.382705074157901 -1.9591282073207257 5.5475976656088 -1.9591282073207257 L 6.154761498159281 -1.9591282073207257 C 6.319654089610179 -1.9591282073207257 6.453808676344831 -1.814124010334262 6.453808676344831 -1.63591110530687 L 6.453808676344831 -0.5732171020138521 C 6.45376263839468 -0.39500419698646283 6.319654089610179 -0.25001534598338004 6.154761498159281 -0.25001534598338004 Z M 5.5475976656088 -1.7725977792997254 C 5.485569200774498 -1.7725977792997254 5.4351116074110255 -1.7112138457675137 5.4351116074110255 -1.6359111053068762 L 5.4351116074110255 -0.5732171020138548 C 5.4351116074110255 -0.49786832360306654 5.485569200774498 -0.4365457740043901 5.5475976656088 -0.4365457740043901 L 6.154761498159281 -0.4365457740043901 C 6.216805308976967 -0.4365457740043901 6.267262902340445 -0.49792970753659915 6.267262902340445 -0.5732171020138548 L 6.267262902340445 -1.6359111053068762 C 6.267262902340445 -1.711275229701049 6.216805308976967 -1.7725977792997254 6.154761498159281 -1.7725977792997254 Z" fill="#000000" transform="matrix(1,0,0,1,0,0)" fill-rule="nonzero"></path></g><g clip-path="url(#SvgjsClipPath110834d5eba0f-3025-42e4-9838-44b0627f7368)"><path d=" M 11.78946898478182 -0.3432728870021897 L 11.182305152231333 -0.3432728870021897 C 11.06866814527983 -0.3432728870021897 10.97653086104798 -0.44622908951909324 10.97653086104798 -0.5732171020138521 L 10.97653086104798 -1.63591110530687 C 10.97653086104798 -1.7629144637850187 11.068606761346294 -1.8658553203185324 11.182305152231333 -1.8658553203185324 L 11.78946898478182 -1.8658553203185324 C 11.903121337716707 -1.8658553203185324 11.995243275965171 -1.7629144637850125 11.995243275965171 -1.63591110530687 L 11.995243275965171 -0.5732171020138521 C 11.99519723801502 -0.44625978148585865 11.903121337716707 -0.3432728870021897 11.78946898478182 -0.3432728870021897 Z" fill="#3361e1" transform="matrix(1,0,0,1,0,0)" fill-rule="nonzero"></path></g><g clip-path="url(#SvgjsClipPath110834d5eba0f-3025-42e4-9838-44b0627f7368)"><path d=" M 11.78946898478182 -0.25001534598338004 L 11.182305152231333 -0.25001534598338004 C 11.017412560780434 -0.25001534598338004 10.883257974045787 -0.39500419698646283 10.883257974045787 -0.5732171020138521 L 10.883257974045787 -1.63591110530687 C 10.883257974045787 -1.8141240103342646 11.017412560780434 -1.9591282073207257 11.182305152231333 -1.9591282073207257 L 11.78946898478182 -1.9591282073207257 C 11.954361576232717 -1.9591282073207257 12.08851616296737 -1.814124010334262 12.08851616296737 -1.63591110530687 L 12.08851616296737 -0.5732171020138521 C 12.08851616296737 -0.39500419698646283 11.954361576232717 -0.25001534598338004 11.78946898478182 -0.25001534598338004 Z M 11.182305152231333 -1.7725977792997254 C 11.120261341413652 -1.7725977792997254 11.069803748050173 -1.7112138457675137 11.069803748050173 -1.6359111053068762 L 11.069803748050173 -0.5732171020138548 C 11.069803748050173 -0.49786832360306654 11.120261341413652 -0.4365457740043901 11.182305152231333 -0.4365457740043901 L 11.78946898478182 -0.4365457740043901 C 11.851512795599499 -0.4365457740043901 11.901970388962978 -0.49792970753659915 11.901970388962978 -0.5732171020138548 L 11.901970388962978 -1.6359111053068762 C 11.901970388962978 -1.711275229701049 11.851512795599499 -1.7725977792997254 11.78946898478182 -1.7725977792997254 Z" fill="#000000" transform="matrix(1,0,0,1,0,0)" fill-rule="nonzero"></path></g><g clip-path="url(#SvgjsClipPath110834d5eba0f-3025-42e4-9838-44b0627f7368)"><path d=" M 12.454901516237754 -1.2333859611694011 L 4.882165134152866 -1.2333859611694011 C 4.746015569578422 -1.2333859611694011 4.635662603070889 -1.3247559462320977 4.635662603070889 -1.4374875401640024 L 4.635662603070889 -1.661784433290702 C 4.635662603070889 -1.774500681239223 4.746015569578415 -1.8658860122853032 4.882165134152866 -1.8658860122853032 L 12.454901516237754 -1.8658860122853032 C 12.591035734828814 -1.8658860122853032 12.70140404731973 -1.7745160272226066 12.70140404731973 -1.661784433290702 L 12.70140404731973 -1.4374875401640024 C 12.701404047319723 -1.3247559462320977 12.591035734828814 -1.2333859611694011 12.454901516237754 -1.2333859611694011 Z" fill="#dddee0" transform="matrix(1,0,0,1,0,0)" fill-rule="nonzero"></path></g><g clip-path="url(#SvgjsClipPath110834d5eba0f-3025-42e4-9838-44b0627f7368)"><path d=" M 12.454901516237754 -1.1401130741672043 L 4.882149788169476 -1.1401130741672043 C 4.694806023029172 -1.1401130741672043 4.542389716068695 -1.2735157077160801 4.542389716068695 -1.4374721941806152 L 4.542389716068695 -1.6617690873073148 C 4.542389716068695 -1.8257255737718499 4.694806023029172 -1.9591282073207257 4.882149788169476 -1.9591282073207257 L 12.454901516237747 -1.9591282073207257 C 12.642260627361434 -1.9591282073207257 12.794692280305295 -1.8257255737718499 12.794692280305295 -1.6617690873073148 L 12.794692280305295 -1.4374721941806152 C 12.79472297227207 -1.2735157077160864 12.642260627361441 -1.1401130741672043 12.454901516237754 -1.1401130741672043 Z M 4.882149788169488 -1.7725977792997227 C 4.799097326100409 -1.7725977792997227 4.728935490073089 -1.7218332662685834 4.728935490073089 -1.6617690873073148 L 4.728935490073089 -1.4374721941806152 C 4.728935490073089 -1.3774080152193466 4.799097326100409 -1.3266435021882108 4.882149788169488 -1.3266435021882108 L 12.454901516237754 -1.3266435021882108 C 12.537969324290216 -1.3266435021882108 12.608131160317537 -1.3774080152193466 12.608131160317537 -1.4374721941806152 L 12.608131160317537 -1.6617690873073148 C 12.608131160317537 -1.7218332662685834 12.537969324290216 -1.7725977792997227 12.454901516237754 -1.7725977792997227 Z" fill="#000000" transform="matrix(1,0,0,1,0,0)" fill-rule="nonzero"></path></g><g clip-path="url(#SvgjsClipPath110834d5eba0f-3025-42e4-9838-44b0627f7368)"><path d=" M 5.59940570550998 -4.713732224578696 L 4.941630819762194 -4.713732224578696 C 4.890117626698191 -4.713732224578696 4.84835793276 -4.755491918516887 4.84835793276 -4.80700511158089 L 4.84835793276 -7.070967348115895 C 4.8483664071266865 -7.122474548098553 4.89012361908244 -7.16422488983185 4.941630819762206 -7.1642248891347045 L 5.652825073666391 -7.1642248891347045 L 5.652825073666391 -6.9776944611137015 L 5.034903706764387 -6.9776944611137015 L 5.034903706764387 -4.900277998583086 L 5.59940570550998 -4.900277998583086 Z" fill="#000000" transform="matrix(1,0,0,1,0,0)" fill-rule="nonzero"></path></g><g clip-path="url(#SvgjsClipPath110834d5eba0f-3025-42e4-9838-44b0627f7368)"><path d=" M 4.737053515282724 -6.790611577690906 L 5.146192778258293 -6.790611577690906 C 5.212715826808504 -6.790611577690906 5.266643401831874 -6.736684002667536 5.266643401831874 -6.670160954117325 L 5.266643401831874 -5.174372607787792 C 5.266643401831874 -5.1078495592375806 5.212715826808504 -5.0539219842142105 5.146192778258293 -5.0539219842142105 L 4.737053515282724 -5.0539219842142105 C 4.670530466732513 -5.0539219842142105 4.616602891709142 -5.1078495592375806 4.616602891709142 -5.174372607787792 L 4.616602891709142 -6.670160954117325 C 4.616602891709142 -6.736684002667536 4.670530466732513 -6.790611577690906 4.737053515282724 -6.790611577690906 Z" fill="#dddee0" transform="matrix(1,0,0,1,0,0)" fill-rule="nonzero"></path></g><g clip-path="url(#SvgjsClipPath110834d5eba0f-3025-42e4-9838-44b0627f7368)"><path d=" M 5.146192778258286 -4.960664443195396 L 4.737053515282717 -4.960664443195396 C 4.619079354641626 -4.9607997344877175 4.523473767198453 -5.056398457165508 4.5233300047069305 -5.174372607787788 L 4.5233300047069305 -6.670160954117322 C 4.523473749925648 -6.788137597171566 4.619076872228473 -6.883740719474385 4.737053515282717 -6.883884464693091 L 5.146192778258286 -6.883884464693091 C 5.264178914835868 -6.88375761171876 5.35979631039225 -6.78814708128268 5.359931634817445 -6.6701609541173195 L 5.359931634817445 -5.174372607787788 C 5.359787855634286 -5.056392473733222 5.264172931743867 -4.960791279728478 5.146192778258286 -4.960664443195396 Z M 4.737053515282717 -6.697354036672094 C 4.722050686055116 -6.697328653512122 4.709899565066686 -6.685163802443474 4.709891124694719 -6.670160954117325 L 4.709891124694719 -5.174372607787791 C 4.709908020181031 -5.159375751391457 4.722056670821251 -5.147220237106806 4.737053515282717 -5.1471948712164055 L 5.146192778258286 -5.1471948712164055 C 5.161198109995311 -5.147211766733793 5.1733604948887955 -5.159367287978924 5.1733858608130525 -5.174372607787791 L 5.1733858608130525 -6.670160954117325 C 5.173368946641313 -6.6851722672518505 5.161204091392815 -6.697337122500349 5.146192778258286 -6.697354036672094 Z" fill="#000000" transform="matrix(1,0,0,1,0,0)" fill-rule="nonzero"></path></g><g clip-path="url(#SvgjsClipPath110834d5eba0f-3025-42e4-9838-44b0627f7368)"><path d=" M 12.395435830628418 -4.713732224578696 L 11.737660944880632 -4.713732224578696 L 11.737660944880632 -4.900277998583086 L 12.302116905676074 -4.900277998583086 L 12.302116905676074 -6.9776944611137015 L 11.684195538774077 -6.9776944611137015 L 11.684195538774077 -7.164224889134708 L 12.395389792678268 -7.164224889134708 C 12.446896993358045 -7.1642248898318375 12.488654205313793 -7.122474548098532 12.488662679680473 -7.070967348115892 L 12.488662679680473 -4.80700511158089 C 12.488662685961401 -4.755509892114917 12.446931043851299 -4.713757641773212 12.395435830643251 -4.713732224578705 Z" fill="#000000" transform="matrix(1,0,0,1,0,0)" fill-rule="nonzero"></path></g><g clip-path="url(#SvgjsClipPath110834d5eba0f-3025-42e4-9838-44b0627f7368)"><path d=" M 12.19085852614895 -6.790611577690906 L 12.599997789124519 -6.790611577690906 C 12.666520837674728 -6.790611577690906 12.7204484126981 -6.736684002667536 12.7204484126981 -6.670160954117325 L 12.7204484126981 -5.174372607787792 C 12.7204484126981 -5.1078495592375806 12.666520837674728 -5.0539219842142105 12.599997789124519 -5.0539219842142105 L 12.19085852614895 -5.0539219842142105 C 12.12433547759874 -5.0539219842142105 12.070407902575369 -5.1078495592375806 12.070407902575369 -5.174372607787792 L 12.070407902575369 -6.670160954117325 C 12.070407902575369 -6.736684002667536 12.12433547759874 -6.790611577690906 12.19085852614895 -6.790611577690906 Z" fill="#dddee0" transform="matrix(1,0,0,1,0,0)" fill-rule="nonzero"></path></g><g clip-path="url(#SvgjsClipPath110834d5eba0f-3025-42e4-9838-44b0627f7368)"><path d=" M 12.600013135107897 -4.960664443195396 L 12.190858526148943 -4.960664443195396 C 12.072880864918382 -4.960791296149859 11.977270339978222 -5.05639495597012 11.977135015573174 -5.174372607787788 L 11.977135015573174 -6.670160954117322 C 11.977270323734572 -6.788141097761572 12.072878382504705 -6.883749156531694 12.190858526148949 -6.883884464693094 L 12.600013135107897 -6.883884464693094 C 12.717993278752147 -6.883749156531689 12.813601337522272 -6.7881410977615655 12.813736645683676 -6.670160954117322 L 12.813736645683676 -5.174372607787788 C 12.81360132127864 -5.056394955970134 12.717990796338473 -4.960791296149868 12.600013135107908 -4.960664443195396 Z M 12.190858526148943 -6.697354036672094 C 12.175852188709506 -6.6973370994858685 12.163696126002709 -6.685167301114997 12.16369613556094 -6.670160954117325 L 12.16369613556094 -5.174372607787791 C 12.16370459122221 -5.159372252719054 12.17585817824871 -5.147211799259205 12.190858526148936 -5.147194871216403 L 12.600013135107897 -5.147194871216403 C 12.615015972895208 -5.147211785367566 12.627173957528115 -5.159369770000469 12.627190871679279 -5.174372607787788 L 12.627190871679279 -6.670160954117325 C 12.627182416006907 -6.685169784533466 12.61502195835956 -6.697337108616524 12.600013135107897 -6.697354036672094 Z" fill="#000000" transform="matrix(1,0,0,1,0,0)" fill-rule="nonzero"></path></g><g clip-path="url(#SvgjsClipPath110834d5eba0f-3025-42e4-9838-44b0627f7368)"><path d=" M 9.882592435587064 -3.6057061863721414 L 7.454458868820165 -3.6057061863721414 C 7.402951668140387 -3.6057061856750074 7.361194456184646 -3.647456527408316 7.361185981817959 -3.6989637273909564 C 7.361185981817971 -3.7504769204549566 7.402945675756161 -3.792236614393147 7.454458868820165 -3.792236614393147 L 9.882592435587064 -3.792236614393147 C 9.93410562865106 -3.792236614393147 9.975865322589254 -3.7504769204549566 9.975865322589254 -3.69896372739095 C 9.975856848222566 -3.6474565274082957 9.934099636266811 -3.6057061856749986 9.882592435587046 -3.605706186372144 Z" fill="#000000" transform="matrix(1,0,0,1,0,0)" fill-rule="nonzero"></path></g><g clip-path="url(#SvgjsClipPath110834d5eba0f-3025-42e4-9838-44b0627f7368)"><path d=" M 9.882592435587064 -2.9901941388612743 L 7.454458868820165 -2.9901941388612743 C 7.402951668140387 -2.9901941381641413 7.361194456184646 -3.0319444798974464 7.361185981817959 -3.0834516798800875 C 7.361185981817971 -3.1349648729440895 7.402945675756161 -3.1767245668822808 7.454458868820165 -3.1767245668822808 L 9.882592435587064 -3.1767245668822808 C 9.93410562865106 -3.1767245668822808 9.975865322589254 -3.1349648729440895 9.975865322589254 -3.0834516798800875 C 9.975856848222566 -3.031944479897426 9.934099636266811 -2.9901941381641297 9.882592435587046 -2.9901941388612743 Z" fill="#000000" transform="matrix(1,0,0,1,0,0)" fill-rule="nonzero"></path></g><g clip-path="url(#SvgjsClipPath110834d5eba0f-3025-42e4-9838-44b0627f7368)"><path d=" M 9.882592435587064 -2.3746667453670334 L 7.454458868820165 -2.3746667453670334 C 7.402949185665088 -2.3746752180513333 7.361194454502265 -2.4164299492141623 7.361185981817959 -2.4679396323692266 C 7.361194454502194 -2.5194493155241675 7.402949185664971 -2.5612040466870525 7.454458868820035 -2.56121251937142 L 9.882592435587064 -2.56121251937142 C 9.934102118742135 -2.56120404668712 9.975856849904957 -2.519449315524291 9.975865322589257 -2.4679396323692266 C 9.975856849905028 -2.416429949214283 9.934102118742253 -2.374675218051398 9.882592435587188 -2.3746667453670334 Z" fill="#000000" transform="matrix(1,0,0,1,0,0)" fill-rule="nonzero"></path></g><g clip-path="url(#SvgjsClipPath110834d5eba0f-3025-42e4-9838-44b0627f7368)"><path d=" M 9.882592435587064 -4.221218233883001 L 7.454458868820165 -4.221218233883001 C 7.402951668140387 -4.221218233185868 7.361194456184646 -4.262968574919176 7.361185981817959 -4.314475774901817 C 7.361185981817971 -4.365988967965817 7.402945675756161 -4.407748661904008 7.454458868820165 -4.407748661904008 L 9.882592435587064 -4.407748661904008 C 9.93410562865106 -4.407748661904008 9.975865322589254 -4.365988967965817 9.975865322589254 -4.314475774901814 C 9.975856848222566 -4.262968574919156 9.934099636266811 -4.221218233185859 9.882592435587046 -4.221218233883004 Z" fill="#000000" transform="matrix(1,0,0,1,0,0)" fill-rule="nonzero"></path></g><g clip-path="url(#SvgjsClipPath110834d5eba0f-3025-42e4-9838-44b0627f7368)"><path d=" M 11.733624951250885 -6.6828674283584935 L 11.733624951250885 -4.943707131557126 L 5.6035951589735555 -4.943707131557126 L 5.6035951589735555 -6.6828674283584935 C 5.603505586281665 -6.761082106538327 5.609199120270037 -6.83919636699673 5.620629200528766 -6.916571409299142 L 11.716652293629235 -6.916571409299142 C 11.728061831047352 -6.839194842107116 11.733734847206598 -6.761080589766113 11.733624951250885 -6.6828674283584935 Z" fill="#dddee0" transform="matrix(1,0,0,1,0,0)" fill-rule="nonzero"></path></g><g clip-path="url(#SvgjsClipPath110834d5eba0f-3025-42e4-9838-44b0627f7368)"><path d=" M 11.733624951250885 -4.850464936521697 L 5.6035951589735555 -4.850464936521697 C 5.552081965909559 -4.850464936521697 5.5103222719713685 -4.8922246304598875 5.5103222719713685 -4.943737823523891 L 5.5103222719713685 -6.6828674283584935 C 5.510239791935379 -6.765695134453468 5.516282122432152 -6.84841556223048 5.528399840396627 -6.930352102377183 C 5.53521788409372 -6.9760293723201 5.574445884384384 -7.009833334633807 5.620629200528748 -7.0098289503178135 L 11.716667639612616 -7.0098289503178135 C 11.762855973085024 -7.009832201088636 11.802085817026084 -6.976020122616971 11.808896999744768 -6.930336756393602 C 11.821014347697322 -6.848405510551563 11.8270515765823 -6.765689832557456 11.826959222186627 -6.6828674283584935 L 11.826959222186627 -4.943707131557126 C 11.826951085778706 -4.918964303067191 11.817112129561256 -4.8952385584654605 11.79960767470852 -4.877751372065404 C 11.782103219855777 -4.860264185665349 11.758367775719462 -4.850448651649959 11.733624951250844 -4.850464936521697 Z M 5.69680666204222 -5.037010710526087 L 11.640306026298546 -5.037010710526087 L 11.640306026298546 -6.6828674283584935 C 11.640306026298546 -6.730163749145063 11.638157588624921 -6.777153150263967 11.63389140524443 -6.823298522296808 L 5.703221283096339 -6.823298522296808 C 5.6989550997158505 -6.77716849624735 5.69680666204222 -6.730179095128444 5.69680666204222 -6.6828674283584935 Z" fill="#000000" transform="matrix(1,0,0,1,0,0)" fill-rule="nonzero"></path></g><g clip-path="url(#SvgjsClipPath110834d5eba0f-3025-42e4-9838-44b0627f7368)"><path d=" M 8.575252765201427 -6.916556063315619 L 8.761798539205817 -6.916556063315619 L 8.761798539205817 -4.943753169507275 L 8.575252765201427 -4.943753169507275 Z" fill="#000000" transform="matrix(1,0,0,1,0,0)" fill-rule="nonzero"></path></g></g><g><path d=" M 4.641064819335938 0.3644999999999998 Q 4.615564819335938 0.3224999999999998 4.571314819335938 0.2999999999999998 Q 4.527064819335937 0.27749999999999986 4.4670648193359375 0.27749999999999986 Q 4.356064819335938 0.27749999999999986 4.292314819335937 0.3494999999999998 Q 4.228564819335937 0.4214999999999999 4.228564819335937 0.5429999999999998 Q 4.228564819335937 0.6794999999999998 4.296814819335937 0.7507499999999998 Q 4.365064819335937 0.8219999999999998 4.495564819335938 0.8219999999999998 Q 4.650064819335937 0.8219999999999998 4.716064819335937 0.6824999999999999 L 4.4205648193359375 0.6824999999999999 L 4.4205648193359375 0.47099999999999986 L 4.969564819335938 0.47099999999999986 L 4.969564819335938 0.7559999999999998 Q 4.935064819335937 0.8399999999999999 4.868314819335938 0.9134999999999999 Q 4.801564819335938 0.9869999999999999 4.699564819335937 1.03425 Q 4.597564819335938 1.0815 4.4670648193359375 1.0815 Q 4.308064819335938 1.0815 4.1858148193359375 1.0132499999999998 Q 4.063564819335937 0.9449999999999998 3.9968148193359374 0.8227499999999999 Q 3.9300648193359375 0.7004999999999999 3.9300648193359375 0.5429999999999998 Q 3.9300648193359375 0.3869999999999998 3.9968148193359374 0.2647499999999998 Q 4.063564819335937 0.14249999999999985 4.185064819335937 0.07424999999999982 Q 4.306564819335938 0.005999999999999783 4.465564819335937 0.005999999999999783 Q 4.665064819335938 0.005999999999999783 4.7955648193359375 0.10199999999999987 Q 4.926064819335938 0.19799999999999984 4.957564819335937 0.3644999999999998 L 4.641064819335938 0.3644999999999998 M 5.335593383789062 1.0147499999999998 Q 5.211093383789063 0.9449999999999998 5.138343383789063 0.8212499999999998 Q 5.0655933837890625 0.6974999999999998 5.0655933837890625 0.5414999999999999 Q 5.0655933837890625 0.38549999999999984 5.138343383789063 0.2617499999999998 Q 5.211093383789063 0.1379999999999998 5.335593383789062 0.06899999999999973 Q 5.460093383789062 -2.220446049250313e-16 5.608593383789063 -2.220446049250313e-16 Q 5.758593383789062 -2.220446049250313e-16 5.882343383789062 0.06899999999999973 Q 6.006093383789063 0.1379999999999998 6.078093383789063 0.2617499999999998 Q 6.150093383789063 0.38549999999999984 6.150093383789063 0.5414999999999999 Q 6.150093383789063 0.6974999999999998 6.078093383789063 0.8212499999999998 Q 6.006093383789063 0.9449999999999998 5.881593383789062 1.0147499999999998 Q 5.757093383789062 1.0844999999999998 5.608593383789063 1.0844999999999998 Q 5.460093383789062 1.0844999999999998 5.335593383789062 1.0147499999999998 M 5.786343383789062 0.7379999999999998 Q 5.851593383789062 0.6644999999999999 5.851593383789062 0.5414999999999999 Q 5.851593383789062 0.41549999999999987 5.786343383789062 0.3427499999999998 Q 5.7210933837890625 0.2699999999999998 5.608593383789063 0.2699999999999998 Q 5.494593383789063 0.2699999999999998 5.430093383789062 0.3427499999999998 Q 5.365593383789062 0.41549999999999987 5.365593383789062 0.5414999999999999 Q 5.365593383789062 0.6659999999999998 5.430093383789062 0.7387499999999998 Q 5.494593383789063 0.8114999999999999 5.608593383789063 0.8114999999999999 Q 5.7210933837890625 0.8114999999999999 5.786343383789062 0.7379999999999998 M 6.999074340820313 0.016499999999999737 L 6.999074340820313 0.25049999999999983 L 6.576074340820313 0.25049999999999983 L 6.576074340820313 0.4364999999999998 L 6.888074340820313 0.4364999999999998 L 6.888074340820313 0.6599999999999998 L 6.576074340820313 0.6599999999999998 L 6.576074340820313 1.0739999999999998 L 6.282074340820312 1.0739999999999998 L 6.282074340820312 0.016499999999999737 L 6.999074340820313 0.016499999999999737 M 7.357535522460937 1.0147499999999998 Q 7.233035522460938 0.9449999999999998 7.160285522460938 0.8212499999999998 Q 7.0875355224609375 0.6974999999999998 7.0875355224609375 0.5414999999999999 Q 7.0875355224609375 0.38549999999999984 7.160285522460938 0.2617499999999998 Q 7.233035522460938 0.1379999999999998 7.357535522460937 0.06899999999999973 Q 7.482035522460937 -2.220446049250313e-16 7.630535522460938 -2.220446049250313e-16 Q 7.780535522460937 -2.220446049250313e-16 7.904285522460937 0.06899999999999973 Q 8.028035522460938 0.1379999999999998 8.100035522460937 0.2617499999999998 Q 8.172035522460938 0.38549999999999984 8.172035522460938 0.5414999999999999 Q 8.172035522460938 0.6974999999999998 8.100035522460937 0.8212499999999998 Q 8.028035522460938 0.9449999999999998 7.903535522460937 1.0147499999999998 Q 7.779035522460937 1.0844999999999998 7.630535522460938 1.0844999999999998 Q 7.482035522460937 1.0844999999999998 7.357535522460937 1.0147499999999998 M 7.808285522460937 0.7379999999999998 Q 7.873535522460937 0.6644999999999999 7.873535522460937 0.5414999999999999 Q 7.873535522460937 0.41549999999999987 7.808285522460937 0.3427499999999998 Q 7.7430355224609375 0.2699999999999998 7.630535522460938 0.2699999999999998 Q 7.516535522460938 0.2699999999999998 7.452035522460937 0.3427499999999998 Q 7.387535522460937 0.41549999999999987 7.387535522460937 0.5414999999999999 Q 7.387535522460937 0.6659999999999998 7.452035522460937 0.7387499999999998 Q 7.516535522460938 0.8114999999999999 7.630535522460938 0.8114999999999999 Q 7.7430355224609375 0.8114999999999999 7.808285522460937 0.7379999999999998 M 8.839516479492188 1.0739999999999998 L 8.629516479492187 0.6839999999999998 L 8.598016479492188 0.6839999999999998 L 8.598016479492188 1.0739999999999998 L 8.304016479492187 1.0739999999999998 L 8.304016479492187 0.016499999999999737 L 8.767516479492187 0.016499999999999737 Q 8.895016479492188 0.016499999999999737 8.983516479492188 0.06074999999999986 Q 9.072016479492188 0.10499999999999987 9.117016479492188 0.1822499999999998 Q 9.162016479492188 0.25949999999999984 9.162016479492188 0.3554999999999998 Q 9.162016479492188 0.4634999999999998 9.102766479492187 0.5452499999999998 Q 9.043516479492187 0.6269999999999998 8.929516479492188 0.6614999999999998 L 9.168016479492188 1.0739999999999998 L 8.839516479492188 1.0739999999999998 M 8.598016479492188 0.4829999999999999 L 8.743516479492188 0.4829999999999999 Q 8.803516479492188 0.4829999999999999 8.833516479492188 0.4544999999999998 Q 8.863516479492187 0.4259999999999998 8.863516479492187 0.3719999999999998 Q 8.863516479492187 0.32099999999999984 8.832766479492188 0.29174999999999984 Q 8.802016479492188 0.26249999999999984 8.743516479492188 0.26249999999999984 L 8.598016479492188 0.26249999999999984 L 8.598016479492188 0.4829999999999999 M 10.092032592773437 0.016499999999999737 L 10.092032592773437 0.25049999999999983 L 9.810032592773437 0.25049999999999983 L 9.810032592773437 1.0739999999999998 L 9.516032592773438 1.0739999999999998 L 9.516032592773438 0.25049999999999983 L 9.237032592773437 0.25049999999999983 L 9.237032592773437 0.016499999999999737 L 10.092032592773437 0.016499999999999737 M 11.181038452148437 1.0739999999999998 L 10.887038452148438 1.0739999999999998 L 10.495538452148438 0.4829999999999999 L 10.495538452148438 1.0739999999999998 L 10.201538452148437 1.0739999999999998 L 10.201538452148437 0.016499999999999737 L 10.495538452148438 0.016499999999999737 L 10.887038452148438 0.6149999999999998 L 10.887038452148438 0.016499999999999737 L 11.181038452148437 0.016499999999999737 L 11.181038452148437 1.0739999999999998 M 11.643060424804688 0.016499999999999737 L 11.643060424804688 1.0739999999999998 L 11.349060424804687 1.0739999999999998 L 11.349060424804687 0.016499999999999737 L 11.643060424804688 0.016499999999999737 M 12.607535522460937 0.016499999999999737 L 12.607535522460937 0.25049999999999983 L 12.325535522460937 0.25049999999999983 L 12.325535522460937 1.0739999999999998 L 12.031535522460938 1.0739999999999998 L 12.031535522460938 0.25049999999999983 L 11.752535522460937 0.25049999999999983 L 11.752535522460937 0.016499999999999737 L 12.607535522460937 0.016499999999999737 M 13.011041381835938 0.2519999999999998 L 13.011041381835938 0.4244999999999999 L 13.348541381835938 0.4244999999999999 L 13.348541381835938 0.6479999999999999 L 13.011041381835938 0.6479999999999999 L 13.011041381835938 0.8384999999999998 L 13.393541381835938 0.8384999999999998 L 13.393541381835938 1.0739999999999998 L 12.717041381835937 1.0739999999999998 L 12.717041381835937 0.016499999999999737 L 13.393541381835938 0.016499999999999737 L 13.393541381835938 0.2519999999999998 L 13.011041381835938 0.2519999999999998" fill="#000000" fill-rule="nonzero"></path></g><g><path d=" M 0.38925 1.675125 Q 0.4515 1.708125 0.48562500000000003 1.76775 Q 0.51975 1.827375 0.51975 1.905375 Q 0.51975 1.982625 0.48562500000000003 2.042625 Q 0.4515 2.102625 0.388875 2.135625 Q 0.32625 2.168625 0.24375 2.168625 L 0.0465 2.168625 L 0.0465 1.642125 L 0.24375 1.642125 Q 0.327 1.642125 0.38925 1.675125 M 0.34875 2.017875 Q 0.38925 1.978125 0.38925 1.905375 Q 0.38925 1.832625 0.34875 1.792125 Q 0.30825 1.751625 0.23550000000000001 1.751625 L 0.17475000000000002 1.751625 L 0.17475000000000002 2.057625 L 0.23550000000000001 2.057625 Q 0.30825 2.057625 0.34875 2.017875 M 0.7199923095703125 1.744875 L 0.7199923095703125 1.851375 L 0.8917423095703125 1.851375 L 0.8917423095703125 1.950375 L 0.7199923095703125 1.950375 L 0.7199923095703125 2.065875 L 0.9142423095703125 2.065875 L 0.9142423095703125 2.168625 L 0.5917423095703125 2.168625 L 0.5917423095703125 1.642125 L 0.9142423095703125 1.642125 L 0.9142423095703125 1.744875 L 0.7199923095703125 1.744875 M 1.2847353515625 2.069625 L 1.4527353515625 2.069625 L 1.4527353515625 2.168625 L 1.1564853515625 2.168625 L 1.1564853515625 1.642125 L 1.2847353515625 1.642125 L 1.2847353515625 2.069625 M 1.8419776611328125 2.075625 L 1.6454776611328126 2.075625 L 1.6139776611328125 2.168625 L 1.4797276611328125 2.168625 L 1.6702276611328126 1.642125 L 1.8187276611328125 1.642125 L 2.0092276611328126 2.168625 L 1.8734776611328126 2.168625 L 1.8419776611328125 2.075625 M 1.8089776611328126 1.976625 L 1.7437276611328125 1.783875 L 1.6792276611328125 1.976625 L 1.8089776611328126 1.976625 M 2.6047086181640626 1.642125 L 2.6047086181640626 1.744875 L 2.4652086181640627 1.744875 L 2.4652086181640627 2.168625 L 2.3369586181640627 2.168625 L 2.3369586181640627 1.744875 L 2.1974586181640623 1.744875 L 2.1974586181640623 1.642125 L 2.6047086181640626 1.642125 M 2.797461181640625 1.744875 L 2.797461181640625 1.851375 L 2.969211181640625 1.851375 L 2.969211181640625 1.950375 L 2.797461181640625 1.950375 L 2.797461181640625 2.065875 L 2.9917111816406248 2.065875 L 2.9917111816406248 2.168625 L 2.669211181640625 2.168625 L 2.669211181640625 1.642125 L 2.9917111816406248 1.642125 L 2.9917111816406248 1.744875 L 2.797461181640625 1.744875 M 3.671222900390625 1.642125 L 3.671222900390625 2.168625 L 3.542972900390625 2.168625 L 3.542972900390625 1.852875 L 3.425222900390625 2.168625 L 3.321722900390625 2.168625 L 3.203222900390625 1.852125 L 3.203222900390625 2.168625 L 3.074972900390625 2.168625 L 3.074972900390625 1.642125 L 3.226472900390625 1.642125 L 3.374222900390625 2.006625 L 3.520472900390625 1.642125 L 3.671222900390625 1.642125 M 4.143745239257813 1.89525 Q 4.122745239257813 1.933125 4.079245239257813 1.956375 Q 4.035745239257812 1.979625 3.9712452392578124 1.979625 L 3.8917452392578125 1.979625 L 3.8917452392578125 2.168625 L 3.7634952392578125 2.168625 L 3.7634952392578125 1.642125 L 3.9712452392578124 1.642125 Q 4.034245239257812 1.642125 4.077745239257813 1.663875 Q 4.121245239257813 1.685625 4.142995239257813 1.723875 Q 4.164745239257813 1.762125 4.164745239257813 1.811625 Q 4.164745239257813 1.857375 4.143745239257813 1.89525 M 4.016245239257812 1.860375 Q 4.034245239257812 1.8431250000000001 4.034245239257812 1.811625 Q 4.034245239257812 1.780125 4.016245239257812 1.762875 Q 3.9982452392578125 1.745625 3.9614952392578124 1.745625 L 3.8917452392578125 1.745625 L 3.8917452392578125 1.877625 L 3.9614952392578124 1.877625 Q 3.9982452392578125 1.877625 4.016245239257812 1.860375 M 4.359762817382813 1.744875 L 4.359762817382813 1.851375 L 4.531512817382812 1.851375 L 4.531512817382812 1.950375 L 4.359762817382813 1.950375 L 4.359762817382813 2.065875 L 4.554012817382812 2.065875 L 4.554012817382812 2.168625 L 4.2315128173828125 2.168625 L 4.2315128173828125 1.642125 L 4.554012817382812 1.642125 L 4.554012817382812 1.744875 L 4.359762817382813 1.744875 M 4.389012817382812 1.5506250000000001 L 4.272762817382812 1.612125 L 4.272762817382812 1.523625 L 4.389012817382812 1.464375 L 4.505262817382812 1.523625 L 4.505262817382812 1.612125 L 4.389012817382812 1.5506250000000001 M 5.016024536132813 1.642125 L 5.016024536132813 1.744875 L 4.876524536132813 1.744875 L 4.876524536132813 2.168625 L 4.748274536132812 2.168625 L 4.748274536132812 1.744875 L 4.608774536132812 1.744875 L 4.608774536132812 1.642125 L 5.016024536132813 1.642125 M 5.208777099609375 1.744875 L 5.208777099609375 1.851375 L 5.380527099609375 1.851375 L 5.380527099609375 1.950375 L 5.208777099609375 1.950375 L 5.208777099609375 2.065875 L 5.403027099609375 2.065875 L 5.403027099609375 2.168625 L 5.080527099609375 2.168625 L 5.080527099609375 1.642125 L 5.403027099609375 1.642125 L 5.403027099609375 1.744875 L 5.208777099609375 1.744875 M 5.9730201416015625 2.075625 L 5.776520141601562 2.075625 L 5.745020141601563 2.168625 L 5.610770141601562 2.168625 L 5.801270141601562 1.642125 L 5.9497701416015625 1.642125 L 6.140270141601563 2.168625 L 6.004520141601563 2.168625 L 5.9730201416015625 2.075625 M 5.940020141601562 1.976625 L 5.874770141601562 1.783875 L 5.8102701416015625 1.976625 L 5.940020141601562 1.976625 M 6.485251098632813 2.069625 L 6.653251098632812 2.069625 L 6.653251098632812 2.168625 L 6.3570010986328125 2.168625 L 6.3570010986328125 1.642125 L 6.485251098632813 1.642125 L 6.485251098632813 2.069625 M 7.042493408203125 2.075625 L 6.845993408203125 2.075625 L 6.814493408203125 2.168625 L 6.680243408203125 2.168625 L 6.870743408203125 1.642125 L 7.019243408203125 1.642125 L 7.209743408203125 2.168625 L 7.073993408203125 2.168625 L 7.042493408203125 2.075625 M 7.009493408203125 1.976625 L 6.944243408203125 1.783875 L 6.879743408203125 1.976625 L 7.009493408203125 1.976625 M 7.562974365234375 2.063625 L 7.789474365234375 2.063625 L 7.789474365234375 2.168625 L 7.417474365234375 2.168625 L 7.417474365234375 2.071125 L 7.642474365234375 1.747125 L 7.417474365234375 1.747125 L 7.417474365234375 1.642125 L 7.789474365234375 1.642125 L 7.789474365234375 1.739625 L 7.562974365234375 2.063625 M 7.986355590820312 2.139375 Q 7.924480590820313 2.104875 7.888105590820312 2.043 Q 7.8517305908203125 1.981125 7.8517305908203125 1.903875 Q 7.8517305908203125 1.826625 7.888105590820312 1.765125 Q 7.924480590820313 1.703625 7.986355590820312 1.669125 Q 8.048230590820312 1.634625 8.122480590820313 1.634625 Q 8.196730590820312 1.634625 8.258605590820313 1.669125 Q 8.320480590820312 1.703625 8.356105590820313 1.765125 Q 8.391730590820313 1.826625 8.391730590820313 1.903875 Q 8.391730590820313 1.981125 8.355730590820313 2.043 Q 8.319730590820313 2.104875 8.258230590820313 2.139375 Q 8.196730590820312 2.1738750000000002 8.122480590820313 2.1738750000000002 Q 8.048230590820312 2.1738750000000002 7.986355590820312 2.139375 M 8.223355590820313 2.014875 Q 8.261230590820313 1.972875 8.261230590820313 1.903875 Q 8.261230590820313 1.834125 8.223355590820313 1.7925 Q 8.185480590820312 1.750875 8.122480590820313 1.750875 Q 8.058730590820312 1.750875 8.020855590820313 1.792125 Q 7.982980590820312 1.833375 7.982980590820312 1.903875 Q 7.982980590820312 1.973625 8.020855590820313 2.01525 Q 8.058730590820312 2.0568750000000002 8.122480590820313 2.0568750000000002 Q 8.185480590820312 2.0568750000000002 8.223355590820313 2.014875 M 8.933988647460938 2.168625 L 8.805738647460938 2.168625 L 8.591238647460937 1.8438750000000002 L 8.591238647460937 2.168625 L 8.462988647460937 2.168625 L 8.462988647460937 1.642125 L 8.591238647460937 1.642125 L 8.805738647460938 1.968375 L 8.805738647460938 1.642125 L 8.933988647460938 1.642125 L 8.933988647460938 2.168625 M 9.155249267578125 1.744875 L 9.155249267578125 1.851375 L 9.326999267578126 1.851375 L 9.326999267578126 1.950375 L 9.155249267578125 1.950375 L 9.155249267578125 2.065875 L 9.349499267578125 2.065875 L 9.349499267578125 2.168625 L 9.026999267578125 2.168625 L 9.026999267578125 1.642125 L 9.349499267578125 1.642125 L 9.349499267578125 1.744875 L 9.155249267578125 1.744875 M 9.678742309570312 2.155125 Q 9.632992309570312 2.136375 9.605617309570313 2.099625 Q 9.578242309570312 2.062875 9.576742309570312 2.011125 L 9.713242309570312 2.011125 Q 9.716242309570312 2.040375 9.733492309570313 2.05575 Q 9.750742309570313 2.071125 9.778492309570312 2.071125 Q 9.806992309570312 2.071125 9.823492309570312 2.058 Q 9.839992309570313 2.044875 9.839992309570313 2.0216250000000002 Q 9.839992309570313 2.002125 9.826867309570313 1.9893750000000001 Q 9.813742309570312 1.976625 9.794617309570313 1.968375 Q 9.775492309570312 1.9601250000000001 9.740242309570313 1.949625 Q 9.689242309570313 1.933875 9.656992309570313 1.918125 Q 9.624742309570312 1.9023750000000001 9.601492309570313 1.871625 Q 9.578242309570312 1.840875 9.578242309570312 1.791375 Q 9.578242309570312 1.717875 9.631492309570312 1.67625 Q 9.684742309570312 1.634625 9.770242309570312 1.634625 Q 9.857242309570312 1.634625 9.910492309570312 1.67625 Q 9.963742309570312 1.717875 9.967492309570313 1.792125 L 9.828742309570313 1.792125 Q 9.827242309570313 1.766625 9.809992309570312 1.752 Q 9.792742309570313 1.7373750000000001 9.765742309570312 1.7373750000000001 Q 9.742492309570313 1.7373750000000001 9.728242309570312 1.7497500000000001 Q 9.713992309570312 1.762125 9.713992309570312 1.785375 Q 9.713992309570312 1.810875 9.737992309570313 1.8251249999999999 Q 9.761992309570312 1.839375 9.812992309570312 1.855875 Q 9.863992309570312 1.873125 9.895867309570313 1.888875 Q 9.927742309570313 1.904625 9.950992309570312 1.934625 Q 9.974242309570313 1.964625 9.974242309570313 2.011875 Q 9.974242309570313 2.0568750000000002 9.951367309570312 2.093625 Q 9.928492309570313 2.130375 9.884992309570313 2.152125 Q 9.841492309570313 2.1738750000000002 9.782242309570313 2.1738750000000002 Q 9.724492309570312 2.1738750000000002 9.678742309570312 2.155125 M 10.178984985351562 1.642125 L 10.178984985351562 1.957125 Q 10.178984985351562 2.004375 10.202234985351563 2.029875 Q 10.225484985351562 2.055375 10.270484985351562 2.055375 Q 10.315484985351562 2.055375 10.339484985351563 2.029875 Q 10.363484985351562 2.004375 10.363484985351562 1.957125 L 10.363484985351562 1.642125 L 10.491734985351563 1.642125 L 10.491734985351563 1.956375 Q 10.491734985351563 2.026875 10.461734985351562 2.075625 Q 10.431734985351563 2.124375 10.381109985351562 2.149125 Q 10.330484985351562 2.1738750000000002 10.268234985351562 2.1738750000000002 Q 10.205984985351563 2.1738750000000002 10.156859985351563 2.1495 Q 10.107734985351563 2.125125 10.079234985351562 2.076 Q 10.050734985351562 2.026875 10.050734985351562 1.956375 L 10.050734985351562 1.642125 L 10.178984985351562 1.642125 M 10.850247802734375 2.168625 L 10.740747802734376 1.969875 L 10.709997802734375 1.969875 L 10.709997802734375 2.168625 L 10.581747802734375 2.168625 L 10.581747802734375 1.642125 L 10.796997802734374 1.642125 Q 10.859247802734375 1.642125 10.903122802734375 1.663875 Q 10.946997802734375 1.685625 10.968747802734375 1.7235 Q 10.990497802734374 1.7613750000000001 10.990497802734374 1.8078750000000001 Q 10.990497802734374 1.860375 10.960872802734375 1.9016250000000001 Q 10.931247802734376 1.942875 10.873497802734375 1.9601250000000001 L 10.994997802734375 2.168625 L 10.850247802734375 2.168625 M 10.709997802734375 1.8791250000000002 L 10.789497802734376 1.8791250000000002 Q 10.824747802734375 1.8791250000000002 10.842372802734374 1.861875 Q 10.859997802734375 1.844625 10.859997802734375 1.813125 Q 10.859997802734375 1.783125 10.842372802734374 1.765875 Q 10.824747802734375 1.748625 10.789497802734376 1.748625 L 10.709997802734375 1.748625 L 10.709997802734375 1.8791250000000002 M 11.19898095703125 1.744875 L 11.19898095703125 1.851375 L 11.37073095703125 1.851375 L 11.37073095703125 1.950375 L 11.19898095703125 1.950375 L 11.19898095703125 2.065875 L 11.39323095703125 2.065875 L 11.39323095703125 2.168625 L 11.07073095703125 2.168625 L 11.07073095703125 1.642125 L 11.39323095703125 1.642125 L 11.39323095703125 1.744875 L 11.19898095703125 1.744875 M 11.773473999023437 2.050125 L 11.690223999023438 2.265375 L 11.608473999023438 2.265375 L 11.651973999023438 2.050125 L 11.773473999023437 2.050125 M 11.963589477539063 2.139375 Q 11.901714477539063 2.104875 11.865339477539063 2.043 Q 11.828964477539062 1.981125 11.828964477539062 1.903875 Q 11.828964477539062 1.826625 11.865339477539063 1.765125 Q 11.901714477539063 1.703625 11.963589477539063 1.669125 Q 12.025464477539062 1.634625 12.099714477539063 1.634625 Q 12.173964477539062 1.634625 12.235839477539063 1.669125 Q 12.297714477539062 1.703625 12.333339477539063 1.765125 Q 12.368964477539063 1.826625 12.368964477539063 1.903875 Q 12.368964477539063 1.981125 12.332964477539063 2.043 Q 12.296964477539063 2.104875 12.235464477539063 2.139375 Q 12.173964477539062 2.1738750000000002 12.099714477539063 2.1738750000000002 Q 12.025464477539062 2.1738750000000002 11.963589477539063 2.139375 M 12.200589477539063 2.014875 Q 12.238464477539063 1.972875 12.238464477539063 1.903875 Q 12.238464477539063 1.834125 12.200589477539063 1.7925 Q 12.162714477539062 1.750875 12.099714477539063 1.750875 Q 12.035964477539062 1.750875 11.998089477539063 1.792125 Q 11.960214477539063 1.833375 11.960214477539063 1.903875 Q 11.960214477539063 1.973625 11.998089477539063 2.01525 Q 12.035964477539062 2.0568750000000002 12.099714477539063 2.0568750000000002 Q 12.162714477539062 2.0568750000000002 12.200589477539063 2.014875 M 12.911222534179688 2.168625 L 12.782972534179688 2.168625 L 12.568472534179687 1.8438750000000002 L 12.568472534179687 2.168625 L 12.440222534179687 2.168625 L 12.440222534179687 1.642125 L 12.568472534179687 1.642125 L 12.782972534179688 1.968375 L 12.782972534179688 1.642125 L 12.911222534179688 1.642125 L 12.911222534179688 2.168625 M 13.541964477539063 1.642125 L 13.541964477539063 1.744875 L 13.402464477539063 1.744875 L 13.402464477539063 2.168625 L 13.274214477539063 2.168625 L 13.274214477539063 1.744875 L 13.134714477539063 1.744875 L 13.134714477539063 1.642125 L 13.541964477539063 1.642125 M 13.695717041015625 1.568625 L 13.685967041015624 1.734375 L 13.599717041015625 1.734375 L 13.589967041015624 1.568625 L 13.695717041015625 1.568625 M 13.900473266601562 1.744875 L 13.900473266601562 1.851375 L 14.072223266601563 1.851375 L 14.072223266601563 1.950375 L 13.900473266601562 1.950375 L 13.900473266601562 2.065875 L 14.094723266601562 2.065875 L 14.094723266601562 2.168625 L 13.772223266601562 2.168625 L 13.772223266601562 1.642125 L 14.094723266601562 1.642125 L 14.094723266601562 1.744875 L 13.900473266601562 1.744875 M 14.774234985351562 1.642125 L 14.774234985351562 2.168625 L 14.645984985351562 2.168625 L 14.645984985351562 1.852875 L 14.528234985351563 2.168625 L 14.424734985351563 2.168625 L 14.306234985351562 1.852125 L 14.306234985351562 2.168625 L 14.177984985351562 2.168625 L 14.177984985351562 1.642125 L 14.329484985351563 1.642125 L 14.477234985351563 2.006625 L 14.623484985351563 1.642125 L 14.774234985351562 1.642125 M 15.46275732421875 1.642125 L 15.46275732421875 2.168625 L 15.33450732421875 2.168625 L 15.33450732421875 1.852875 L 15.21675732421875 2.168625 L 15.11325732421875 2.168625 L 14.99475732421875 1.852125 L 14.99475732421875 2.168625 L 14.86650732421875 2.168625 L 14.86650732421875 1.642125 L 15.01800732421875 1.642125 L 15.16575732421875 2.006625 L 15.31200732421875 1.642125 L 15.46275732421875 1.642125 M 15.683279663085937 1.744875 L 15.683279663085937 1.851375 L 15.855029663085938 1.851375 L 15.855029663085938 1.950375 L 15.683279663085937 1.950375 L 15.683279663085937 2.065875 L 15.877529663085937 2.065875 L 15.877529663085937 2.168625 L 15.555029663085937 2.168625 L 15.555029663085937 1.642125 L 15.877529663085937 1.642125 L 15.877529663085937 1.744875 L 15.683279663085937 1.744875 M 16.431791381835936 2.168625 L 16.303541381835938 2.168625 L 16.089041381835937 1.8438750000000002 L 16.089041381835937 2.168625 L 15.960791381835937 2.168625 L 15.960791381835937 1.642125 L 16.089041381835937 1.642125 L 16.303541381835938 1.968375 L 16.303541381835938 1.642125 L 16.431791381835936 1.642125 L 16.431791381835936 2.168625 M 16.653052001953125 1.744875 L 16.653052001953125 1.851375 L 16.824802001953124 1.851375 L 16.824802001953124 1.950375 L 16.653052001953125 1.950375 L 16.653052001953125 2.065875 L 16.847302001953125 2.065875 L 16.847302001953125 2.168625 L 16.524802001953127 2.168625 L 16.524802001953127 1.642125 L 16.847302001953125 1.642125 L 16.847302001953125 1.744875 L 16.653052001953125 1.744875 M 16.770052001953125 1.536375 L 16.589302001953126 1.612125 L 16.589302001953126 1.523625 L 16.770052001953125 1.436625 L 16.770052001953125 1.536375 M 17.258295043945314 1.623375 L 17.243295043945313 1.982625 L 17.134545043945312 1.982625 L 17.119545043945312 1.623375 L 17.258295043945314 1.623375 M 17.135670043945314 2.15475 Q 17.11429504394531 2.134875 17.11429504394531 2.105625 Q 17.11429504394531 2.075625 17.135670043945314 2.055375 Q 17.157045043945313 2.035125 17.19079504394531 2.035125 Q 17.223795043945312 2.035125 17.24517004394531 2.055375 Q 17.266545043945314 2.075625 17.266545043945314 2.105625 Q 17.266545043945314 2.134875 17.24517004394531 2.15475 Q 17.223795043945312 2.174625 17.19079504394531 2.174625 Q 17.157045043945313 2.174625 17.135670043945314 2.15475" fill="#3361e1" fill-rule="nonzero"></path></g></g><defs><clipPath id="SvgjsClipPath11088"><path d=" M 4.523330004706948 -8.482045866170978 h 8.290406640976729 v 8.232045866170978 h -8.290406640976729 Z"></path></clipPath><clipPath id="SvgjsClipPath110834d5eba0f-3025-42e4-9838-44b0627f7368"><path d=" M 4.523330004706948 -8.482045866170978 L 12.813736645683676 -8.482045866170978 L 12.813736645683676 -0.25 L 4.523330004706948 -0.25 Z"></path></clipPath></defs></svg>